<?xml version="1.0"?>
<svg xmlns="http://www.w3.org/2000/svg" id="outline" viewBox="0 0 64 64" width="512" height="512"><path d="M53,19H50a3,3,0,0,1-3-3V3a1,1,0,0,0-1-1H36a1,1,0,0,0-1,1V16a3,3,0,0,1-3,3H29a5.006,5.006,0,0,0-5,5v8H7a1,1,0,0,0-1,1V61a1,1,0,0,0,1,1H57a1,1,0,0,0,1-1V58.062a1,1,0,0,0-2,0V60H30V58H53a1,1,0,0,0,1-1V25a1,1,0,0,0-1-1H29a1,1,0,0,0-1,1v7H26V24a3,3,0,0,1,3-3h3a5.006,5.006,0,0,0,5-5V14h8v2a5.006,5.006,0,0,0,5,5h3a3,3,0,0,1,3,3V50a1,1,0,0,0,2,0V24A5.006,5.006,0,0,0,53,19ZM52,51H30V31H52ZM28,52v4H8V38h2V53a1,1,0,0,0,1,1H25a1,1,0,0,0,1-1V38h2ZM24,38V52H22V38ZM20,52H16V38h4Zm-6,0H12V38h2ZM24,34v2H12V34ZM10,34v2H8V34ZM8,58H28v2H8Zm22-2V53H52v3ZM52,26v3H30V26ZM28,36H26V34h2Zm9-24V4h8v8Z"/><path d="M40,47.946a5.931,5.931,0,0,0,4.207-1.739l2-2a5.95,5.95,0,0,0-8.414-8.414l-2,2A5.946,5.946,0,0,0,40,47.946Zm4.793-5.153-2,2a3.959,3.959,0,0,1-4.788.616L45.41,38a3.953,3.953,0,0,1-.617,4.789Zm-7.586-3.586,2-2A3.962,3.962,0,0,1,44,36.591L36.59,44a3.953,3.953,0,0,1,.617-4.789Z"/><circle cx="57" cy="54" r="1"/></svg>
