<svg id="Outline" height="512" viewBox="0 0 64 64" width="512" xmlns="http://www.w3.org/2000/svg"><path d="m58 14v-2h-5v-9.957l-1.095.1a32.387 32.387 0 0 0 -19.8 9.336l-.519.521h-25.586v2h-4v42h26.343a4.966 4.966 0 0 0 3.535-1.464l.122-.122.122.122a4.966 4.966 0 0 0 3.535 1.464h26.343v-42zm-2 0v36h-21.546a30.477 30.477 0 0 1 2.546-2.084v.084h17v-2h-14.053a30.485 30.485 0 0 1 4.235-2h9.818v-2h-1v-28zm-23 31.414.516-.516a30.456 30.456 0 0 1 17.484-8.63v3.98a32.456 32.456 0 0 0 -18 8.372zm18-11.159a32.458 32.458 0 0 0 -18 8.369v-3.21l.516-.516a30.456 30.456 0 0 1 17.484-8.63zm-5.681-28.672a30.518 30.518 0 0 1 5.681-1.319v23.991a32.458 32.458 0 0 0 -18 8.369v-23.21l.516-.516a30.554 30.554 0 0 1 11.803-7.315zm-14.319 8.417v36h-23v-36zm-2.657 40h-24.343v-38h2v36h25v.586l-.536.536a3.02 3.02 0 0 1 -2.121.878zm31.657 0h-24.343a3.02 3.02 0 0 1 -2.121-.878l-1.122-1.122h25.586v-36h2z"/><path d="m48.223 23.975.777-.175v-16.264l-1.223.279a32.559 32.559 0 0 0 -13.165 6.408l-.37.3v16.784l1.629-1.321a30.566 30.566 0 0 1 12.352-6.011zm-11.981-8.494a30.6 30.6 0 0 1 10.758-5.409v12.141a32.624 32.624 0 0 0 -10.758 4.987z"/><path d="m10 16h19v2h-19z"/><path d="m10 20h10v2h-10z"/><path d="m10 24h10v2h-10z"/><path d="m10 28h19v2h-19z"/><path d="m10 32h19v2h-19z"/><path d="m21 26h8v-6h-8zm2-4h4v2h-4z"/><path d="m20 36h9v2h-9z"/><path d="m20 40h6v2h-6z"/><path d="m10 46h19v2h-19z"/><path d="m18 36h-8v8h8zm-2 6h-4v-4h4z"/></svg>