<?xml version="1.0" encoding="iso-8859-1"?>
<!-- Generator: Adobe Illustrator 19.0.0, SVG Export Plug-In . SVG Version: 6.00 Build 0)  -->
<svg version="1.1" id="Capa_1" xmlns="http://www.w3.org/2000/svg" xmlns:xlink="http://www.w3.org/1999/xlink" x="0px" y="0px"
	 viewBox="0 0 480 480" style="enable-background:new 0 0 480 480;" xml:space="preserve">
<g>
	<g>
		<path d="M456,116H328V76c0-17.673-14.327-32-32-32H184c-17.673,0-32,14.327-32,32v40H24c-13.255,0-24,10.745-24,24v272
			c0,13.255,10.745,24,24,24h432c13.255,0,24-10.745,24-24V140C480,126.745,469.255,116,456,116z M344,132v144h-40V132H344z
			 M368,292v56h-88v-56H368z M288,116h-96V92h96V116z M168,76c0-8.837,7.163-16,16-16h112c8.837,0,16,7.163,16,16v40h-8V92
			c0-8.837-7.163-16-16-16h-96c-8.837,0-16,7.163-16,16v24h-8V76z M200,292v56h-88v-56H200z M136,235.672
			c0.064-0.561,0.064-1.127,0-1.688V132h40v144h-40V235.672z M16,140c0-4.418,3.582-8,8-8h31.28
			C51.845,152.1,36.1,167.845,16,171.28V140z M24,420c-4.418,0-8-3.582-8-8v-31.28c20.1,3.435,35.845,19.18,39.28,39.28H24z
			 M120,420H71.448C67.756,391.043,44.957,368.244,16,364.552V187.448c28.957-3.692,51.756-26.491,55.448-55.448H120v83.352
			l-37.088-37.088c-3.124-3.123-8.188-3.123-11.312,0l-45.256,45.248c-3.126,3.122-3.129,8.188-0.006,11.314
			c0.002,0.002,0.004,0.004,0.006,0.006l50.912,50.904c3.124,3.123,8.188,3.123,11.312,0L120,254.304V276h-16c-4.418,0-8,3.582-8,8
			v72c0,4.418,3.582,8,8,8h16V420z M116.848,234.832L82.912,268.8l-39.6-39.6l33.944-34L116.848,234.832z M176,420h-40v-56h40V420z
			 M288,420h-96v-56h16c4.418,0,8-3.582,8-8v-72c0-4.418-3.582-8-8-8h-16V132h96v144h-16c-4.418,0-8,3.582-8,8v72
			c0,4.418,3.582,8,8,8h16V420z M344,420h-40v-56h40V420z M464,412c0,4.418-3.582,8-8,8h-31.28c3.435-20.1,19.18-35.845,39.28-39.28
			V412z M464,364.552c-28.957,3.692-51.756,26.491-55.448,55.448H360v-56h16c4.418,0,8-3.582,8-8v-72c0-4.418-3.582-8-8-8h-16
			v-16.208c6.883,5.294,15.316,8.179,24,8.208c22.091,0,40-17.909,40-40s-17.909-40-40-40c-8.684,0.029-17.117,2.914-24,8.208V132
			h48.552c3.692,28.957,26.491,51.756,55.448,55.448V364.552z M360,228c0-13.255,10.745-24,24-24s24,10.745,24,24s-10.745,24-24,24
			S360,241.255,360,228z M464,171.28c-20.1-3.435-35.845-19.18-39.28-39.28H456c4.418,0,8,3.582,8,8V171.28z"/>
	</g>
</g>
<g>
	<g>
		<path d="M184,300h-56c-4.418,0-8,3.582-8,8v24c0,4.418,3.582,8,8,8h56c4.418,0,8-3.582,8-8v-24C192,303.582,188.418,300,184,300z
			 M176,324h-40v-8h40V324z"/>
	</g>
</g>
<g>
	<g>
		<path d="M352,300h-56c-4.418,0-8,3.582-8,8v24c0,4.418,3.582,8,8,8h56c4.418,0,8-3.582,8-8v-24C360,303.582,356.418,300,352,300z
			 M344,324h-40v-8h40V324z"/>
	</g>
</g>
<g>
	<g>
		<path d="M232,164h-16c-4.418,0-8,3.582-8,8s3.582,8,8,8h16c4.418,0,8-3.582,8-8S236.418,164,232,164z"/>
	</g>
</g>
<g>
	<g>
		<path d="M248,188h-32c-4.418,0-8,3.582-8,8s3.582,8,8,8h32c4.418,0,8-3.582,8-8S252.418,188,248,188z"/>
	</g>
</g>
<g>
	<g>
		<path d="M56,316H40c-4.418,0-8,3.582-8,8s3.582,8,8,8h16c4.418,0,8-3.582,8-8S60.418,316,56,316z"/>
	</g>
</g>
<g>
	<g>
		<path d="M72,340H40c-4.418,0-8,3.582-8,8s3.582,8,8,8h32c4.418,0,8-3.582,8-8S76.418,340,72,340z"/>
	</g>
</g>
<g>
	<g>
		<path d="M424,276h-16c-4.418,0-8,3.582-8,8s3.582,8,8,8h16c4.418,0,8-3.582,8-8S428.418,276,424,276z"/>
	</g>
</g>
<g>
	<g>
		<path d="M440,300h-32c-4.418,0-8,3.582-8,8s3.582,8,8,8h32c4.418,0,8-3.582,8-8S444.418,300,440,300z"/>
	</g>
</g>
<g>
</g>
<g>
</g>
<g>
</g>
<g>
</g>
<g>
</g>
<g>
</g>
<g>
</g>
<g>
</g>
<g>
</g>
<g>
</g>
<g>
</g>
<g>
</g>
<g>
</g>
<g>
</g>
<g>
</g>
</svg>
